<svg xmlns="http://www.w3.org/2000/svg" viewBox="0 0 100 100" role="img" aria-label="Bina celebrate">
  <circle cx="30" cy="26" r="10" fill="#F97316" stroke="#171717" stroke-width="2.5" stroke-linecap="round" stroke-linejoin="round"/>
  <circle cx="70" cy="26" r="10" fill="#F97316" stroke="#171717" stroke-width="2.5" stroke-linecap="round" stroke-linejoin="round"/>
  <circle cx="30" cy="26" r="5" fill="#FDBA74"/>
  <circle cx="70" cy="26" r="5" fill="#FDBA74"/>
  <ellipse cx="50" cy="82" rx="20" ry="14" fill="#F97316" stroke="#171717" stroke-width="2.5" stroke-linecap="round" stroke-linejoin="round"/>
  <ellipse cx="50" cy="82" rx="13" ry="9" fill="#FDBA74"/>
  <path d="M30 76 Q20 60 18 50" stroke="#171717" stroke-width="2.5" fill="none" stroke-linecap="round" stroke-linejoin="round"/>
  <path d="M70 76 Q80 60 82 50" stroke="#171717" stroke-width="2.5" fill="none" stroke-linecap="round" stroke-linejoin="round"/>
  <circle cx="18" cy="49" r="4" fill="#F97316" stroke="#171717" stroke-width="2.5"/>
  <circle cx="82" cy="49" r="4" fill="#F97316" stroke="#171717" stroke-width="2.5"/>
  <ellipse cx="38" cy="94" rx="8" ry="5" fill="#F97316" stroke="#171717" stroke-width="2.5" stroke-linecap="round" stroke-linejoin="round"/>
  <ellipse cx="62" cy="94" rx="8" ry="5" fill="#F97316" stroke="#171717" stroke-width="2.5" stroke-linecap="round" stroke-linejoin="round"/>
  <circle cx="50" cy="46" r="24" fill="#F97316" stroke="#171717" stroke-width="2.5" stroke-linecap="round" stroke-linejoin="round"/>
  <ellipse cx="50" cy="52" rx="10" ry="7" fill="#FDBA74" stroke="#171717" stroke-width="1.5"/>
  <circle cx="38" cy="42" r="5" fill="#171717"/>
  <circle cx="62" cy="42" r="5" fill="#171717"/>
  <circle cx="39.5" cy="40.5" r="2" fill="white"/>
  <circle cx="63.5" cy="40.5" r="2" fill="white"/>
  <circle cx="30" cy="52" r="5" fill="#FDBA74" opacity="0.7"/>
  <circle cx="70" cy="52" r="5" fill="#FDBA74" opacity="0.7"/>
  <ellipse cx="50" cy="50" rx="3" ry="2" fill="#171717"/>
  <path d="M43 54 Q50 60 57 54" stroke="#171717" stroke-width="2" fill="none" stroke-linecap="round" stroke-linejoin="round"/>
  <path d="M12 42l2 4 4 1-3 3 1 4-4-2-4 2 1-4-3-3 4-1z" fill="#FACC15" stroke="#171717" stroke-width="1.2"/>
  <path d="M84 38l1.5 3 3 0.8-2.3 2.2 0.8 3-3-1.5-3 1.5 0.8-3-2.3-2.2 3-0.8z" fill="#FACC15" stroke="#171717" stroke-width="1.2"/>
  <path d="M50 12l1.2 2.5 2.8 0.3-2 2 0.5 2.7-2.5-1.3-2.5 1.3 0.5-2.7-2-2 2.8-0.3z" fill="#FACC15" stroke="#171717" stroke-width="1.2"/>
</svg>